<svg width="18" height="18" viewBox="0 0 18 18" fill="none" xmlns="http://www.w3.org/2000/svg">
<g clip-path="url(#clip0_1_383)">
<path d="M14.5667 0H2.5C1.12167 0 0 1.12167 0 2.5V14.5667C0 15.9453 1.12167 17.0667 2.5 17.0667H14.5667C15.9453 17.0667 17.0667 15.9453 17.0667 14.5667V2.5C17.0667 1.12167 15.9453 0 14.5667 0ZM16.0667 14.5667C16.0667 15.3937 15.3937 16.0667 14.5667 16.0667H2.5C1.673 16.0667 1 15.3937 1 14.5667V2.5C1 1.673 1.673 1 2.5 1H14.5667C15.3937 1 16.0667 1.673 16.0667 2.5V14.5667Z" fill="white"/>
<path d="M14.0334 2.0332C13.4821 2.0332 13.0334 2.48187 13.0334 3.0332C13.0334 3.58454 13.4821 4.0332 14.0334 4.0332C14.5848 4.0332 15.0334 3.58454 15.0334 3.0332C15.0334 2.48187 14.5848 2.0332 14.0334 2.0332Z" fill="white"/>
<path d="M8.53345 4.0332C6.05211 4.0332 4.03345 6.05187 4.03345 8.5332C4.03345 11.0145 6.05211 13.0332 8.53345 13.0332C11.0148 13.0332 13.0334 11.0145 13.0334 8.5332C13.0334 6.05187 11.0148 4.0332 8.53345 4.0332ZM8.53345 12.0332C6.60345 12.0332 5.03345 10.4632 5.03345 8.5332C5.03345 6.6032 6.60345 5.0332 8.53345 5.0332C10.4634 5.0332 12.0334 6.6032 12.0334 8.5332C12.0334 10.4632 10.4634 12.0332 8.53345 12.0332Z" fill="white"/>
</g>
<defs>
<clipPath id="clip0_1_383">
<rect width="17.0667" height="17.0667" fill="white"/>
</clipPath>
</defs>
</svg>
