<svg width="16" height="13" viewBox="0 0 16 13" fill="none" xmlns="http://www.w3.org/2000/svg">
<path d="M15.6098 1.50146C15.0293 1.7561 14.4107 1.92488 13.7659 2.00683C14.4293 1.61073 14.9356 0.988293 15.1737 0.238049C14.5551 0.606829 13.8722 0.867317 13.1444 1.01268C12.5571 0.387317 11.72 0 10.8068 0C9.03512 0 7.60878 1.43805 7.60878 3.20098C7.60878 3.45463 7.63024 3.69854 7.68293 3.93073C5.02244 3.80098 2.66829 2.52585 1.08683 0.583415C0.810732 1.06244 0.648781 1.61073 0.648781 2.20098C0.648781 3.30927 1.21951 4.29171 2.07024 4.86049C1.5561 4.85073 1.05171 4.70146 0.62439 4.46634C0.62439 4.4761 0.62439 4.48878 0.62439 4.50146C0.62439 6.05659 1.73366 7.34829 3.18829 7.64585C2.9278 7.71707 2.6439 7.75122 2.34927 7.75122C2.14439 7.75122 1.93756 7.73951 1.74341 7.69659C2.15805 8.9639 3.33463 9.89561 4.73366 9.92585C3.64488 10.7776 2.26244 11.2907 0.765854 11.2907C0.503415 11.2907 0.251707 11.279 0 11.2468C1.41756 12.161 3.09756 12.6829 4.90927 12.6829C10.798 12.6829 14.0176 7.80488 14.0176 3.57659C14.0176 3.43512 14.0127 3.29854 14.0059 3.16293C14.641 2.7122 15.1746 2.14927 15.6098 1.50146Z" fill="#444444"/>
</svg>
